<svg width="1200" height="800" viewBox="0 0 1200 800" fill="none" xmlns="http://www.w3.org/2000/svg">
  <defs>
    <linearGradient id="bg" x1="0" y1="0" x2="1" y2="1">
      <stop offset="0%" stop-color="#0369A1" />
      <stop offset="100%" stop-color="#0EA5E9" />
    </linearGradient>
    <linearGradient id="card" x1="0" y1="0" x2="1" y2="1">
      <stop offset="0%" stop-color="#FFFFFF" stop-opacity="0.95" />
      <stop offset="100%" stop-color="#E0F2FE" stop-opacity="0.95" />
    </linearGradient>
  </defs>
  <rect width="1200" height="800" rx="48" fill="url(#bg)" />
  <g transform="translate(120 120)">
    <rect x="0" y="0" width="960" height="560" rx="40" fill="url(#card)" />
    <rect x="48" y="48" width="216" height="78" rx="24" fill="#0EA5E9" opacity="0.9" />
    <rect x="324" y="48" width="336" height="24" rx="12" fill="#7DD3FC" />
    <rect x="324" y="92" width="216" height="18" rx="9" fill="#BAE6FD" />
    <rect x="48" y="156" width="312" height="280" rx="32" fill="#FFFFFF" />
    <rect x="72" y="188" width="264" height="18" rx="9" fill="#E2E8F0" />
    <rect x="72" y="228" width="192" height="18" rx="9" fill="#E2E8F0" />
    <rect x="72" y="268" width="232" height="18" rx="9" fill="#E2E8F0" />
    <rect x="72" y="308" width="152" height="18" rx="9" fill="#E2E8F0" />
    <rect x="72" y="356" width="232" height="18" rx="9" fill="#E2E8F0" />
    <rect x="48" y="468" width="312" height="66" rx="28" fill="#0EA5E9" />
    <text x="204" y="510" text-anchor="middle" font-family="Inter, sans-serif" font-size="24" font-weight="700" fill="#FFFFFF">Calculate</text>
    <rect x="408" y="156" width="320" height="280" rx="32" fill="#FFFFFF" />
    <path d="M468 404C468 377.908 490.908 355 517 355C543.092 355 566 377.908 566 404C566 430.092 543.092 453 517 453C490.908 453 468 430.092 468 404Z" fill="#38BDF8" />
    <path d="M584 334C584 306.49 608.49 282 636 282C663.51 282 688 306.49 688 334C688 361.51 663.51 386 636 386C608.49 386 584 361.51 584 334Z" fill="#22D3EE" />
    <path d="M528 234C528 202.49 554.49 176 586 176C617.51 176 644 202.49 644 234C644 265.51 617.51 292 586 292C554.49 292 528 265.51 528 234Z" fill="#38BDF8" />
    <rect x="432" y="456" width="256" height="58" rx="24" fill="#BEF264" />
    <text x="560" y="494" text-anchor="middle" font-family="Inter, sans-serif" font-size="24" font-weight="700" fill="#0F172A">75%</text>
    <rect x="776" y="156" width="112" height="42" rx="20" fill="#FFFFFF" stroke="#93C5FD" stroke-width="4" />
    <text x="832" y="186" text-anchor="middle" font-family="Inter, sans-serif" font-size="20" fill="#0F172A">Req%</text>
    <rect x="776" y="218" width="112" height="42" rx="20" fill="#FFFFFF" stroke="#93C5FD" stroke-width="4" />
    <text x="832" y="248" text-anchor="middle" font-family="Inter, sans-serif" font-size="24" font-weight="700" fill="#0F172A">85</text>
    <rect x="776" y="296" width="112" height="42" rx="20" fill="#FFFFFF" stroke="#93C5FD" stroke-width="4" />
    <text x="832" y="326" text-anchor="middle" font-family="Inter, sans-serif" font-size="20" fill="#0F172A">Miss</text>
    <text x="832" y="362" text-anchor="middle" font-family="Inter, sans-serif" font-size="24" font-weight="700" fill="#0F172A">3</text>
    <line x1="56" y1="112" x2="904" y2="112" stroke="#93C5FD" stroke-width="2" stroke-dasharray="12 8" />
  </g>
</svg>
